<svg width="501" height="295" viewBox="0 0 501 295" fill="none" xmlns="http://www.w3.org/2000/svg">
<path d="M485.037 249.866C480.239 266.534 466.23 278.202 451.616 288.114C449.575 289.498 447.534 290.85 445.493 292.171C445.479 292.177 445.465 292.19 445.45 292.196C445.352 292.259 445.254 292.323 445.162 292.386C444.741 292.658 444.319 292.93 443.901 293.199L444.131 293.302C444.131 293.302 444.356 293.422 444.11 293.322C444.036 293.291 443.96 293.263 443.886 293.232C435.397 289.804 426.756 286.122 420.25 279.699C413.501 273.029 409.557 262.567 413.212 253.804C413.692 252.657 414.299 251.566 415.02 250.553C415.317 250.128 415.636 249.722 415.969 249.323C417.984 246.859 420.619 244.977 423.602 243.871C426.585 242.765 429.808 242.475 432.94 243.029C436.072 243.584 439 244.965 441.423 247.028C443.846 249.092 445.676 251.765 446.725 254.772C447.799 244.761 439.556 236.376 431.624 230.189C423.688 224.005 414.67 217.271 413.136 207.316C412.279 201.778 414.203 196.41 417.706 192.101C417.815 191.97 417.923 191.84 418.035 191.712C422.3 186.694 428.298 183.471 434.832 182.688C447.001 181.422 458.821 187.872 467.661 196.344C481.89 209.976 490.491 230.914 485.037 249.866Z" fill="#F2F2F2"/>
<path d="M462.164 228.064C464.5 231.703 466.293 235.663 467.487 239.82C468.497 243.535 468.946 247.381 468.82 251.229C468.495 259.148 466.274 266.873 462.347 273.754C459.388 278.974 455.783 283.799 451.616 288.114C449.575 289.498 447.534 290.85 445.492 292.171C445.479 292.177 445.464 292.19 445.45 292.196C445.352 292.259 445.254 292.323 445.162 292.386C444.741 292.658 444.319 292.93 443.901 293.199C443.901 293.199 444.356 293.422 444.11 293.322C444.036 293.291 443.959 293.263 443.886 293.232C444.647 286.985 443.902 280.647 441.712 274.748C439.523 268.848 435.954 263.561 431.304 259.327C426.642 255.159 421.063 252.152 415.021 250.553C415.317 250.128 415.636 249.721 415.969 249.322C418.302 249.978 420.573 250.838 422.756 251.894C430.557 255.646 436.944 261.813 440.973 269.482C444.588 276.447 446.144 284.299 445.458 292.118C445.807 291.801 446.156 291.478 446.494 291.158C452.946 285.135 458.676 278.221 462.554 270.243C465.918 263.486 467.571 256.004 467.368 248.457C467.052 240.228 463.778 232.605 459.037 225.969C453.841 218.889 447.702 212.554 440.792 207.14C433.829 201.555 426.209 196.844 418.102 193.112C417.919 193.026 417.776 192.874 417.702 192.686C417.629 192.498 417.63 192.288 417.706 192.101C417.76 191.933 417.878 191.793 418.035 191.712C418.115 191.677 418.203 191.661 418.29 191.665C418.378 191.669 418.463 191.692 418.54 191.734C419.541 192.195 420.535 192.663 421.521 193.151C429.733 197.216 437.41 202.286 444.373 208.246C451.1 213.989 457.433 220.55 462.164 228.064Z" fill="white"/>
<path d="M290.556 151.034C291.549 150.674 292.451 150.099 293.199 149.352C293.946 148.605 294.521 147.702 294.882 146.708C295.244 145.714 295.383 144.653 295.291 143.6C295.199 142.546 294.877 141.525 294.348 140.61L311.131 121.152L297.9 119.427L283.991 138.169C282.514 139.161 281.451 140.66 281.005 142.384C280.558 144.108 280.758 145.936 281.567 147.522C282.377 149.108 283.739 150.341 285.395 150.988C287.052 151.636 288.888 151.652 290.556 151.034H290.556Z" fill="#FFB8B8"/>
<path d="M385.158 155.146C385.854 154.35 386.368 153.412 386.663 152.396C386.958 151.381 387.027 150.312 386.865 149.267C386.703 148.222 386.314 147.225 385.726 146.346C385.138 145.468 384.364 144.729 383.46 144.182L388.795 119.032L376.373 123.909L373.212 147.045C372.395 148.627 372.186 150.454 372.625 152.18C373.063 153.905 374.119 155.41 375.592 156.409C377.064 157.407 378.851 157.83 380.614 157.597C382.377 157.365 383.994 156.492 385.158 155.146Z" fill="#FFB8B8"/>
<path d="M325.045 286.221L316.236 286.221L312.045 252.196L325.046 252.197L325.045 286.221Z" fill="#FFB8B8"/>
<path d="M327.291 294.772L298.888 294.771V294.411C298.888 292.957 299.174 291.518 299.729 290.174C300.285 288.831 301.099 287.611 302.126 286.583C303.152 285.555 304.371 284.739 305.713 284.183C307.054 283.627 308.491 283.34 309.943 283.34H309.944L327.291 283.341L327.291 294.772Z" fill="#2F2E41"/>
<path d="M368.155 286.221L359.346 286.221L355.156 252.196L368.156 252.197L368.155 286.221Z" fill="#FFB8B8"/>
<path d="M370.401 294.772L341.998 294.771V294.411C341.998 292.957 342.284 291.518 342.84 290.174C343.395 288.831 344.21 287.611 345.236 286.583C346.263 285.555 347.482 284.739 348.823 284.183C350.164 283.627 351.602 283.34 353.054 283.34H353.054L370.402 283.341L370.401 294.772Z" fill="#2F2E41"/>
<path d="M325.962 268.455L313.493 267.955C312.642 267.918 311.84 267.548 311.26 266.924C310.679 266.3 310.367 265.473 310.39 264.621L313.903 149.226L314.133 149.143C335.987 141.227 354.066 141.825 369.405 150.971L369.576 151.074L371.681 263.463C371.689 263.893 371.611 264.321 371.452 264.721C371.294 265.121 371.057 265.485 370.756 265.792C370.455 266.099 370.096 266.343 369.699 266.51C369.303 266.676 368.878 266.762 368.448 266.762H357.933C357.184 266.761 356.459 266.5 355.881 266.023C355.302 265.547 354.906 264.884 354.761 264.149L340.437 191.184C340.388 190.931 340.25 190.705 340.049 190.546C339.848 190.386 339.596 190.304 339.34 190.313C339.083 190.322 338.839 190.423 338.65 190.597C338.461 190.771 338.34 191.007 338.31 191.262L329.301 265.61C329.202 266.394 328.822 267.115 328.231 267.638C327.64 268.162 326.879 268.453 326.09 268.457C326.048 268.457 326.005 268.456 325.962 268.455Z" fill="#2F2E41"/>
<path d="M338.093 48.0287C347.839 48.0287 355.74 40.1167 355.74 30.3568C355.74 20.5968 347.839 12.6848 338.093 12.6848C328.347 12.6848 320.446 20.5968 320.446 30.3568C320.446 40.1167 328.347 48.0287 338.093 48.0287Z" fill="#FFB8B8"/>
<path d="M296.52 136.988C295.908 136.746 295.384 136.323 295.018 135.775L291.608 130.665C291.24 130.111 291.051 129.457 291.066 128.792C291.082 128.127 291.3 127.483 291.693 126.946L305.44 108.262L314.052 66.882C314.547 65.604 315.289 64.4363 316.235 63.4457C317.181 62.4551 318.313 61.6609 319.566 61.1086C320.819 60.5563 322.168 60.2568 323.537 60.2271C324.905 60.1973 326.266 60.4381 327.542 60.9355C328.817 61.4328 329.982 62.1771 330.971 63.1258C331.959 64.0744 332.75 65.2088 333.3 66.4641C333.85 67.7194 334.148 69.0709 334.176 70.4414C334.204 71.8119 333.962 73.1745 333.464 74.4513L329.394 100.787C328.159 108.78 324.068 116.052 317.88 121.25L299.785 136.456C299.437 136.749 299.031 136.964 298.594 137.089C298.158 137.214 297.699 137.245 297.25 137.181C297 137.146 296.755 137.081 296.52 136.988Z" fill="#004894"/>
<path d="M384.404 138.863C383.785 139.086 383.113 139.115 382.476 138.946L376.545 137.367C375.904 137.194 375.33 136.829 374.903 136.319C374.476 135.81 374.215 135.181 374.156 134.518L372.146 111.398L351.308 74.6392C350.837 73.3524 350.624 71.9852 350.681 70.6158C350.738 69.2464 351.063 67.9017 351.64 66.6585C352.216 65.4152 353.031 64.2979 354.038 63.3703C355.046 62.4427 356.226 61.7231 357.512 61.2525C358.797 60.782 360.163 60.5697 361.53 60.6279C362.897 60.6861 364.24 61.0136 365.481 61.5917C366.722 62.1698 367.837 62.9871 368.762 63.9969C369.688 65.0068 370.405 66.1893 370.874 67.477L385.194 89.9381C389.542 96.7546 391.269 104.92 390.054 112.916L386.504 136.304C386.436 136.753 386.273 137.184 386.028 137.566C385.783 137.949 385.459 138.276 385.08 138.525C384.869 138.664 384.642 138.777 384.404 138.863Z" fill="#004894"/>
<path d="M318.791 61.74C321.822 58.4112 325.561 55.8065 329.731 54.1179C333.902 52.4293 338.398 51.7 342.887 51.9837C343.182 52.002 343.476 52.0226 343.769 52.0455H343.769C348.024 52.3824 352.159 53.6252 355.896 55.6907C359.633 57.7563 362.887 60.597 365.439 64.0229C368.034 67.4967 369.859 71.4853 370.792 75.722C371.724 79.9587 371.743 84.3459 370.846 88.5903C367.424 104.811 368.29 121.645 373.358 137.428L378.092 152.148C378.244 152.62 378.286 153.12 378.214 153.611C378.142 154.101 377.959 154.568 377.678 154.977C377.398 155.385 377.027 155.723 376.596 155.965C376.164 156.207 375.682 156.347 375.188 156.373L350.985 157.676L344.792 146.963V158.01L315.375 159.594C315.317 159.597 315.258 159.599 315.201 159.599C314.754 159.598 314.313 159.506 313.904 159.326C313.495 159.147 313.128 158.885 312.825 158.556C312.522 158.227 312.291 157.84 312.145 157.417C312 156.994 311.943 156.546 311.979 156.101L315.304 114.814L311.133 86.7725C310.458 82.2921 310.796 77.7172 312.121 73.3848C313.446 69.0524 315.725 65.073 318.791 61.74Z" fill="#004894"/>
<path d="M350.358 47.2271C348.724 48.1685 342.266 48.7928 341.806 46.9621L341.796 46.9219C341.476 45.5807 341.741 44.1801 341.833 42.8041C341.925 41.4281 341.791 39.9165 340.855 38.9048C339.11 37.0188 336.007 38.0186 333.484 37.5418C332.007 37.2115 330.7 36.3533 329.809 35.1279C328.917 33.9025 328.502 32.3938 328.641 30.8842C328.677 30.5982 328.734 30.3118 328.797 30.0257C328.955 29.3007 328.942 28.5489 328.761 27.8294C328.58 27.1099 328.235 26.4422 327.753 25.8788C327.27 25.3154 326.664 24.8716 325.982 24.5822C325.3 24.2929 324.56 24.1658 323.82 24.2111C321.271 24.3571 318.519 25.1305 316.41 23.2396C314.778 21.7774 314.381 17.9711 315.097 15.8997C316.302 12.4184 324.017 10.596 327.385 9.5941C331.551 8.38869 335.933 8.12809 340.212 8.83124C344.492 9.53439 348.561 11.1836 352.123 13.659C354.251 15.1608 356.238 17.0478 357.145 19.4912C358.052 21.9346 357.614 25.0173 355.569 26.6303C357.154 28.3108 358.271 30.379 358.806 32.6276C359.342 34.8762 359.277 37.2262 358.62 39.4422C357.61 42.7012 352.79 45.8257 350.358 47.2271Z" fill="#2F2E41"/>
<path d="M191.123 99.2927H32.3328C32.1422 99.2927 31.9595 99.2168 31.8247 99.0819C31.69 98.947 31.6143 98.764 31.6143 98.5731C31.6143 98.3823 31.69 98.1993 31.8247 98.0644C31.9595 97.9295 32.1422 97.8536 32.3328 97.8536H191.123C191.313 97.8536 191.496 97.9295 191.631 98.0644C191.766 98.1993 191.841 98.3823 191.841 98.5731C191.841 98.764 191.766 98.947 191.631 99.0819C191.496 99.2168 191.313 99.2927 191.123 99.2927Z" fill="#E6E6E6"/>
<path d="M156.346 99.2927H66.1026C65.912 99.2927 65.7293 99.2168 65.5946 99.0819C65.4598 98.947 65.3841 98.764 65.3841 98.5731C65.3841 98.3823 65.4598 98.1993 65.5946 98.0644C65.7293 97.9295 65.912 97.8536 66.1026 97.8536H156.346C156.536 97.8536 156.719 97.9295 156.854 98.0644C156.989 98.1993 157.064 98.3823 157.064 98.5731C157.064 98.764 156.989 98.947 156.854 99.0819C156.719 99.2168 156.536 99.2927 156.346 99.2927Z" fill="#3F3D56"/>
<path d="M112.087 99.2927C111.896 99.2927 111.714 99.2169 111.579 99.082C111.444 98.947 111.369 98.764 111.369 98.5732V53.2439C111.369 53.0531 111.444 52.8701 111.579 52.7352C111.714 52.6002 111.896 52.5244 112.087 52.5244C112.278 52.5244 112.46 52.6002 112.595 52.7352C112.73 52.8701 112.806 53.0531 112.806 53.2439V98.5732C112.806 98.764 112.73 98.947 112.595 99.082C112.46 99.2169 112.278 99.2927 112.087 99.2927Z" fill="#3F3D56"/>
<path d="M157.353 99.2926C157.162 99.2926 156.98 99.2168 156.845 99.0819C156.71 98.9469 156.634 98.7639 156.634 98.5731V7.91458C156.634 7.72375 156.71 7.54074 156.845 7.40581C156.98 7.27087 157.162 7.19507 157.353 7.19507C157.543 7.19507 157.726 7.27087 157.861 7.40581C157.996 7.54074 158.071 7.72375 158.071 7.91458V98.5731C158.071 98.7639 157.996 98.947 157.861 99.0819C157.726 99.2168 157.543 99.2926 157.353 99.2926Z" fill="#3F3D56"/>
<path d="M7.90357 15.8293C12.2686 15.8293 15.8071 12.2858 15.8071 7.91463C15.8071 3.5435 12.2686 0 7.90357 0C3.53855 0 0 3.5435 0 7.91463C0 12.2858 3.53855 15.8293 7.90357 15.8293Z" fill="#E6E6E6"/>
<path d="M7.90357 61.1585C12.2686 61.1585 15.8071 57.615 15.8071 53.2439C15.8071 48.8727 12.2686 45.3292 7.90357 45.3292C3.53855 45.3292 0 48.8727 0 53.2439C0 57.615 3.53855 61.1585 7.90357 61.1585Z" fill="#E6E6E6"/>
<path d="M7.90357 106.488C12.2686 106.488 15.8071 102.944 15.8071 98.5732C15.8071 94.2021 12.2686 90.6586 7.90357 90.6586C3.53855 90.6586 0 94.2021 0 98.5732C0 102.944 3.53855 106.488 7.90357 106.488Z" fill="#E6E6E6"/>
<path d="M191.123 8.63409H32.3328C32.1422 8.63409 31.9595 8.55828 31.8247 8.42334C31.69 8.28841 31.6143 8.10541 31.6143 7.91458C31.6143 7.72375 31.69 7.54074 31.8247 7.40581C31.9595 7.27087 32.1422 7.19507 32.3328 7.19507H191.123C191.313 7.19507 191.496 7.27087 191.631 7.40581C191.766 7.54074 191.841 7.72375 191.841 7.91458C191.841 8.10541 191.766 8.28841 191.631 8.42334C191.496 8.55828 191.313 8.63409 191.123 8.63409Z" fill="#E6E6E6"/>
<path d="M191.123 53.9634H32.3328C32.1422 53.9634 31.9595 53.8876 31.8247 53.7527C31.69 53.6178 31.6143 53.4348 31.6143 53.2439C31.6143 53.0531 31.69 52.8701 31.8247 52.7352C31.9595 52.6002 32.1422 52.5244 32.3328 52.5244H191.123C191.313 52.5244 191.496 52.6002 191.631 52.7352C191.766 52.8701 191.841 53.0531 191.841 53.2439C191.841 53.4348 191.766 53.6178 191.631 53.7527C191.496 53.8876 191.313 53.9634 191.123 53.9634Z" fill="#E6E6E6"/>
<path d="M66.4619 106.488C70.8269 106.488 74.3654 102.944 74.3654 98.5732C74.3654 94.2021 70.8269 90.6586 66.4619 90.6586C62.0968 90.6586 58.5583 94.2021 58.5583 98.5732C58.5583 102.944 62.0968 106.488 66.4619 106.488Z" fill="#004894"/>
<path d="M112.087 61.1585C116.452 61.1585 119.991 57.615 119.991 53.2439C119.991 48.8727 116.452 45.3292 112.087 45.3292C107.722 45.3292 104.183 48.8727 104.183 53.2439C104.183 57.615 107.722 61.1585 112.087 61.1585Z" fill="#004894"/>
<path d="M112.087 106.488C116.452 106.488 119.991 102.944 119.991 98.5732C119.991 94.2021 116.452 90.6586 112.087 90.6586C107.722 90.6586 104.183 94.2021 104.183 98.5732C104.183 102.944 107.722 106.488 112.087 106.488Z" fill="#004894"/>
<path d="M157.353 15.8293C161.718 15.8293 165.257 12.2858 165.257 7.91463C165.257 3.5435 161.718 0 157.353 0C152.988 0 149.449 3.5435 149.449 7.91463C149.449 12.2858 152.988 15.8293 157.353 15.8293Z" fill="#004894"/>
<path d="M157.353 61.1585C161.718 61.1585 165.257 57.615 165.257 53.2439C165.257 48.8727 161.718 45.3292 157.353 45.3292C152.988 45.3292 149.449 48.8727 149.449 53.2439C149.449 57.615 152.988 61.1585 157.353 61.1585Z" fill="#004894"/>
<path d="M157.353 106.488C161.718 106.488 165.257 102.944 165.257 98.5732C165.257 94.2021 161.718 90.6586 157.353 90.6586C152.988 90.6586 149.449 94.2021 149.449 98.5732C149.449 102.944 152.988 106.488 157.353 106.488Z" fill="#004894"/>
<path d="M500.281 295H184.857C184.666 295 184.484 294.924 184.349 294.789C184.214 294.654 184.139 294.471 184.139 294.281C184.139 294.09 184.214 293.907 184.349 293.772C184.484 293.637 184.666 293.561 184.857 293.561H500.281C500.472 293.561 500.655 293.637 500.79 293.772C500.924 293.907 501 294.09 501 294.281C501 294.471 500.924 294.654 500.79 294.789C500.655 294.924 500.472 295 500.281 295Z" fill="#3F3D56"/>
<path d="M233.515 231.001C233.039 230.977 232.56 230.964 232.078 230.963C224.836 230.963 217.892 233.844 212.771 238.972C207.651 244.099 204.774 251.053 204.774 258.305H233.515V231.001Z" fill="#004894"/>
<path d="M239.263 295C231.833 294.992 224.711 292.033 219.458 286.772C214.204 281.511 211.249 274.379 211.241 266.939C211.241 266.748 211.317 266.565 211.451 266.43C211.586 266.295 211.769 266.22 211.959 266.22H239.981V239.636C239.981 239.538 240.001 239.441 240.04 239.352C240.078 239.262 240.134 239.181 240.205 239.114C240.275 239.046 240.359 238.993 240.45 238.959C240.542 238.926 240.64 238.911 240.737 238.917C248.031 239.302 254.887 242.523 259.844 247.896C264.801 253.268 267.467 260.366 267.275 267.677C267.083 274.989 264.047 281.937 258.815 287.041C253.582 292.144 246.567 295 239.263 295ZM212.688 267.659C212.827 272.799 214.449 277.79 217.36 282.027C220.271 286.264 224.345 289.566 229.089 291.534C233.834 293.502 239.046 294.052 244.096 293.117C249.146 292.182 253.817 289.802 257.546 286.265C261.274 282.728 263.899 278.186 265.105 273.187C266.31 268.188 266.044 262.946 264.338 258.096C262.632 253.245 259.56 248.993 255.493 245.853C251.425 242.714 246.537 240.821 241.418 240.404V266.939C241.418 267.13 241.343 267.313 241.208 267.448C241.073 267.583 240.89 267.659 240.7 267.659H212.688Z" fill="#3F3D56"/>
</svg>
