<svg width="484" height="340" viewBox="0 0 484 340" fill="none" xmlns="http://www.w3.org/2000/svg">
<g clip-path="url(#clip0)">
<path d="M394.542 225.064C395.084 224.362 395.465 223.55 395.658 222.685C395.851 221.821 395.852 220.924 395.661 220.059C395.47 219.193 395.091 218.381 394.551 217.677C394.011 216.974 393.323 216.398 392.536 215.989L393.736 202.19L385.515 199.417L384.095 218.927C383.494 220.293 383.416 221.832 383.876 223.251C384.335 224.671 385.3 225.872 386.588 226.629C387.876 227.385 389.397 227.644 390.863 227.356C392.329 227.067 393.638 226.252 394.542 225.064Z" fill="#FFB8B8"/>
<path d="M435.566 332.348L428.165 332.347L424.645 303.844L435.569 303.845L435.566 332.348Z" fill="#FFB8B8"/>
<path d="M422.878 330.236H437.152V339.209H413.891C413.891 338.03 414.124 336.864 414.575 335.775C415.027 334.686 415.689 333.697 416.523 332.864C417.358 332.031 418.349 331.37 419.439 330.919C420.529 330.468 421.698 330.236 422.878 330.236Z" fill="#2F2E41"/>
<path d="M418.766 313.435L411.579 315.198L401.346 288.358L411.954 285.755L418.766 313.435Z" fill="#FFB8B8"/>
<path d="M405.94 314.407L419.801 311.007L421.946 319.721L399.357 325.262C399.076 324.118 399.023 322.93 399.201 321.765C399.379 320.6 399.786 319.482 400.397 318.474C401.008 317.466 401.813 316.588 402.764 315.89C403.715 315.192 404.794 314.689 405.94 314.407Z" fill="#2F2E41"/>
<path d="M426.904 323.261C426.228 323.263 425.576 323.013 425.074 322.562C424.572 322.111 424.256 321.489 424.187 320.818L415.67 241.601L408.259 265.825L418.756 303.66C418.936 304.309 418.871 305.001 418.571 305.604C418.272 306.208 417.76 306.679 417.134 306.929L408.789 310.261C408.446 310.399 408.078 310.465 407.708 310.456C407.338 310.448 406.974 310.364 406.637 310.211C406.3 310.058 405.998 309.838 405.749 309.565C405.499 309.292 405.308 308.971 405.186 308.622L392.322 271.772C390.914 267.749 390.291 263.493 390.487 259.236L392.282 219.468L439.569 221.467L438.831 319.857C438.822 320.542 438.558 321.199 438.089 321.699C437.621 322.2 436.982 322.507 436.298 322.562L427.115 323.253C427.044 323.259 426.974 323.261 426.904 323.261Z" fill="#2F2E41"/>
<path d="M419.072 131.459C427.854 131.459 434.973 124.351 434.973 115.583C434.973 106.815 427.854 99.7067 419.072 99.7067C410.291 99.7067 403.172 106.815 403.172 115.583C403.172 124.351 410.291 131.459 419.072 131.459Z" fill="#FFB8B8"/>
<path d="M430.765 224.054C426.578 224.054 421.375 223.712 415.994 223.358C408.639 222.875 401.035 222.375 395.358 222.704C394.592 222.78 393.818 222.658 393.112 222.351C392.406 222.044 391.79 221.561 391.324 220.949C385.472 213.468 394.498 184.294 394.885 183.056L402.231 150.434L402.546 150.505L402.231 150.434C403.846 143.259 409.009 137.967 415.705 136.622C421.972 135.365 428.033 137.87 431.92 143.328C432.127 143.618 432.333 143.915 432.539 144.22C445.197 162.937 438.037 209.438 437.558 212.439C438.226 213.238 441.842 217.76 440.848 220.9C440.444 222.178 439.345 223.049 437.584 223.489C435.339 223.932 433.052 224.122 430.765 224.054Z" fill="white"/>
<path d="M395.615 224.069C394.175 224.069 392.232 223.538 389.612 222.45C388.486 221.982 385.06 220.559 389.219 184.266C391.262 166.439 394.189 148.736 394.219 148.559L394.247 148.389L394.404 148.317C394.48 148.283 401.954 144.862 403.254 140.466C403.299 140.314 403.349 140.167 403.405 140.024C403.763 139.047 404.485 138.245 405.42 137.786C406.355 137.328 407.432 137.247 408.425 137.562C409.474 137.812 410.389 138.452 410.983 139.351C411.577 140.25 411.807 141.341 411.625 142.402C411.172 145.269 410.302 148.055 409.041 150.671C405.524 157.917 403.141 177.126 403.117 177.319C402.983 178.959 399.791 217.829 399.176 220.779C398.961 221.809 398.566 223.07 397.406 223.681C396.85 223.955 396.235 224.088 395.615 224.069Z" fill="#2F2E41"/>
<path d="M412.985 222.579C412.695 222.579 412.412 222.482 412.183 222.304C407.505 218.755 415.076 175.731 419.566 160.887C420.465 157.915 421.266 155.369 421.946 153.32C423.186 149.644 424.051 145.853 424.529 142.005C424.776 139.92 425.313 138.728 426.171 138.364C426.767 138.109 427.469 138.282 428.256 138.876C432.403 138.672 436.433 140.364 440.169 142.225L443.53 143.9L447.302 210.574C447.195 214.83 438.794 217.833 435.128 218.025C429.244 218.333 418.678 219.29 414.023 222.232C413.717 222.445 413.357 222.565 412.985 222.579Z" fill="#2F2E41"/>
<path d="M391.973 210.069C391.917 210.069 391.862 210.067 391.805 210.064L384.187 209.596C383.808 209.573 383.438 209.471 383.1 209.297C382.762 209.123 382.464 208.881 382.226 208.586C381.987 208.291 381.812 207.949 381.712 207.583C381.613 207.217 381.591 206.834 381.648 206.459L385.095 183.655L391.585 151.661C391.745 150.872 392.069 150.127 392.536 149.472C393.003 148.816 393.602 148.267 394.296 147.858C394.989 147.449 395.761 147.19 396.561 147.098C397.361 147.006 398.172 147.083 398.94 147.324C400.254 147.742 401.374 148.616 402.099 149.787C402.824 150.958 403.106 152.349 402.894 153.71L397.738 185.768L394.686 207.711C394.592 208.364 394.267 208.961 393.769 209.394C393.271 209.827 392.633 210.066 391.973 210.069Z" fill="#2F2E41"/>
<path d="M417.999 185.109C418.464 184.354 419.089 183.71 419.829 183.222C420.57 182.734 421.409 182.415 422.287 182.286C423.165 182.157 424.061 182.221 424.911 182.475C425.762 182.729 426.546 183.166 427.208 183.756L439.7 177.731L445.218 184.418L427.458 192.678C426.393 193.724 424.98 194.343 423.488 194.419C421.995 194.495 420.527 194.021 419.361 193.088C418.195 192.155 417.413 190.828 417.162 189.357C416.911 187.886 417.209 186.375 417.999 185.109Z" fill="#FFB8B8"/>
<path d="M435.351 191.579C434.736 191.579 434.139 191.372 433.656 190.992C433.173 190.612 432.832 190.08 432.688 189.483L430.873 181.953C430.735 181.387 430.782 180.791 431.008 180.253C431.234 179.716 431.627 179.265 432.129 178.967L443.071 172.429L437.478 151.981C437.084 150.527 437.17 148.986 437.723 147.585C438.251 146.257 439.176 145.124 440.372 144.339C441.568 143.555 442.977 143.158 444.407 143.202C445.838 143.246 447.219 143.728 448.365 144.584C449.511 145.44 450.364 146.628 450.809 147.986L456.985 166.812C457.743 169.107 457.75 171.584 457.002 173.882C456.254 176.181 454.792 178.181 452.828 179.593L436.955 191.059C436.489 191.397 435.927 191.579 435.351 191.579Z" fill="#2F2E41"/>
<path d="M421.977 131.068C424.37 131.12 426.747 130.665 428.952 129.734C431.156 128.803 433.138 127.417 434.768 125.667C436.398 123.916 437.638 121.841 438.408 119.578C439.177 117.315 439.458 114.915 439.233 112.536C439.007 110.157 438.279 107.852 437.098 105.773C435.916 103.695 434.308 101.889 432.378 100.476C430.448 99.0621 428.24 98.0723 425.9 97.5713C423.559 97.0703 421.139 97.0695 418.798 97.5689C415.301 95.4491 411.236 94.0227 407.161 94.3855C403.087 94.7483 399.057 97.1636 397.534 100.954C396.01 104.745 397.647 109.741 401.435 111.282C403.864 112.269 406.607 111.79 409.199 111.392C411.791 110.994 414.619 110.734 416.875 112.069C419.131 113.405 420.145 116.985 418.125 118.655C417.054 119.575 416.289 120.799 415.932 122.164C415.575 123.529 415.644 124.97 416.128 126.295C417.143 128.917 419.915 131.024 421.977 131.068Z" fill="#2F2E41"/>
<path d="M317.139 0H10.7986C7.93545 0.00258782 5.19028 1.13937 3.16571 3.16082C1.14113 5.18226 0.00259354 7.92318 0 10.7819V43.6952C0.00259183 46.554 1.14113 49.2949 3.16571 51.3163C5.19028 53.3378 7.93545 54.4746 10.7986 54.4772H317.139C320.002 54.4746 322.747 53.3378 324.771 51.3163C326.796 49.2949 327.935 46.554 327.937 43.6952V10.7819C327.935 7.92318 326.796 5.18226 324.771 3.16082C322.747 1.13937 320.002 0.00258782 317.139 0ZM326.8 43.6952C326.797 46.2527 325.778 48.7043 323.966 50.5127C322.155 52.3211 319.7 53.3386 317.139 53.3422H10.7986C8.23723 53.3386 5.7818 52.3211 3.97062 50.5127C2.15944 48.7043 1.14032 46.2527 1.13669 43.6952V10.7819C1.14032 8.2245 2.15943 5.77286 3.97061 3.96448C5.78178 2.1561 8.23723 1.13856 10.7986 1.13494H317.139C319.7 1.13856 322.155 2.1561 323.966 3.96448C325.778 5.77286 326.797 8.2245 326.8 10.7819V43.6952Z" fill="#3F3D56"/>
<path d="M317.139 132.221H10.7986C7.93565 132.217 5.19087 131.08 3.16644 129.059C1.14201 127.038 0.00325214 124.297 0 121.439V88.5255C0.00325215 85.6669 1.14201 82.9264 3.16644 80.9051C5.19087 78.8838 7.93565 77.7468 10.7986 77.7435H317.139C320.001 77.7468 322.746 78.8838 324.771 80.9051C326.795 82.9264 327.934 85.6669 327.937 88.5255V121.439C327.934 124.297 326.795 127.038 324.771 129.059C322.746 131.08 320.001 132.217 317.139 132.221ZM10.7986 78.8785C8.237 78.8813 5.78112 79.8986 3.96978 81.7072C2.15843 83.5157 1.13956 85.9678 1.13669 88.5255V121.439C1.13956 123.996 2.15844 126.448 3.96978 128.257C5.78112 130.066 8.23699 131.083 10.7986 131.086H317.139C319.7 131.083 322.156 130.066 323.967 128.257C325.779 126.448 326.798 123.996 326.8 121.439V88.5255C326.798 85.9678 325.779 83.5157 323.967 81.7072C322.156 79.8987 319.7 78.8814 317.139 78.8785L10.7986 78.8785Z" fill="#CCCCCC"/>
<path d="M317.139 209.964H10.7986C7.93565 209.961 5.19087 208.824 3.16644 206.803C1.14201 204.781 0.00325215 202.041 0 199.182V166.269C0.00325214 163.41 1.14201 160.67 3.16644 158.648C5.19087 156.627 7.93565 155.49 10.7986 155.487H317.139C320.001 155.49 322.746 156.627 324.771 158.648C326.795 160.67 327.934 163.41 327.937 166.269V199.182C327.934 202.041 326.795 204.781 324.771 206.803C322.746 208.824 320.001 209.961 317.139 209.964ZM10.7986 156.622C8.237 156.625 5.78112 157.642 3.96978 159.451C2.15843 161.259 1.13956 163.711 1.13669 166.269V199.182C1.13955 201.74 2.15842 204.192 3.96977 206C5.78111 207.809 8.237 208.826 10.7986 208.829H317.139C319.7 208.826 322.156 207.809 323.967 206C325.779 204.192 326.798 201.74 326.8 199.182V166.269C326.798 163.711 325.779 161.259 323.967 159.451C322.156 157.642 319.7 156.625 317.139 156.622H10.7986Z" fill="#CCCCCC"/>
<path d="M52.1919 46.0046C48.4746 46.0046 44.8407 44.904 41.7498 42.842C38.659 40.78 36.2499 37.8491 34.8273 34.4201C33.4048 30.991 33.0325 27.2178 33.7577 23.5775C34.4829 19.9372 36.273 16.5934 38.9015 13.9689C41.5301 11.3444 44.879 9.55712 48.5249 8.83302C52.1708 8.10891 55.9499 8.48054 59.3843 9.90089C62.8186 11.3212 65.754 13.7265 67.8193 16.8126C69.8845 19.8987 70.9868 23.5269 70.9868 27.2385C70.9812 32.2138 68.9992 36.9837 65.4757 40.5018C61.9522 44.0199 57.1749 45.9989 52.1919 46.0046Z" fill="white"/>
<path d="M289.386 42.5602H88.7586C87.5527 42.5602 86.3963 42.0819 85.5436 41.2306C84.6909 40.3792 84.2119 39.2245 84.2119 38.0205C84.2119 36.8164 84.6909 35.6617 85.5436 34.8104C86.3963 33.959 87.5527 33.4807 88.7586 33.4807H289.386C290.592 33.4807 291.748 33.959 292.601 34.8104C293.453 35.6617 293.932 36.8164 293.932 38.0205C293.932 39.2245 293.453 40.3792 292.601 41.2306C291.748 42.0819 290.592 42.5602 289.386 42.5602Z" fill="#CCCCCC"/>
<path d="M224.026 23.2663H88.7586C88.1611 23.267 87.5693 23.1501 87.017 22.9223C86.4647 22.6945 85.9628 22.3602 85.5401 21.9386C85.1173 21.5169 84.7819 21.0162 84.553 20.4651C84.3242 19.9139 84.2064 19.3232 84.2064 18.7265C84.2064 18.1299 84.3242 17.5391 84.553 16.988C84.7819 16.4368 85.1173 15.9361 85.5401 15.5145C85.9628 15.0929 86.4647 14.7586 87.017 14.5308C87.5693 14.303 88.1611 14.1861 88.7586 14.1868H224.026C225.232 14.1868 226.388 14.6651 227.241 15.5164C228.093 16.3678 228.572 17.5225 228.572 18.7265C228.572 19.9306 228.093 21.0853 227.241 21.9366C226.388 22.788 225.232 23.2663 224.026 23.2663Z" fill="#CCCCCC"/>
<path d="M52.1919 123.748C48.4746 123.748 44.8408 122.647 41.7499 120.585C38.6591 118.523 36.2501 115.592 34.8276 112.163C33.405 108.734 33.0329 104.961 33.7581 101.321C34.4833 97.6807 36.2734 94.3369 38.9019 91.7124C41.5305 89.088 44.8794 87.3007 48.5253 86.5766C52.1712 85.8526 55.9502 86.2242 59.3845 87.6446C62.8189 89.065 65.7542 91.4703 67.8194 94.5563C69.8846 97.6424 70.9869 101.271 70.9869 104.982C70.9812 109.957 68.9992 114.727 65.4757 118.245C61.9522 121.763 57.1749 123.742 52.1919 123.748Z" fill="#E6E6E6"/>
<path d="M289.386 120.304H88.7586C87.5527 120.304 86.3963 119.825 85.5436 118.974C84.6909 118.123 84.2119 116.968 84.2119 115.764C84.2119 114.56 84.6909 113.405 85.5436 112.554C86.3963 111.703 87.5527 111.224 88.7586 111.224H289.386C290.592 111.224 291.748 111.703 292.601 112.554C293.453 113.405 293.932 114.56 293.932 115.764C293.932 116.968 293.453 118.123 292.601 118.974C291.748 119.825 290.592 120.304 289.386 120.304Z" fill="#E6E6E6"/>
<path d="M224.026 101.01H88.7586C87.5527 101.01 86.3963 100.531 85.5436 99.68C84.6909 98.8287 84.2119 97.674 84.2119 96.4699C84.2119 95.2659 84.6909 94.1112 85.5436 93.2598C86.3963 92.4085 87.5527 91.9302 88.7586 91.9302H224.026C225.231 91.9302 226.388 92.4085 227.241 93.2598C228.093 94.1112 228.572 95.2659 228.572 96.4699C228.572 97.674 228.093 98.8287 227.241 99.68C226.388 100.531 225.231 101.01 224.026 101.01Z" fill="#E6E6E6"/>
<path d="M52.1919 201.492C48.4746 201.492 44.8407 200.391 41.7498 198.329C38.659 196.267 36.2499 193.336 34.8273 189.907C33.4048 186.478 33.0325 182.705 33.7577 179.064C34.4829 175.424 36.273 172.08 38.9015 169.456C41.5301 166.831 44.879 165.044 48.5249 164.32C52.1708 163.596 55.9499 163.967 59.3843 165.388C62.8186 166.808 65.754 169.213 67.8193 172.3C69.8845 175.386 70.9868 179.014 70.9868 182.725C70.9812 187.701 68.9992 192.471 65.4757 195.989C61.9522 199.507 57.1749 201.486 52.1919 201.492Z" fill="#E6E6E6"/>
<path d="M289.386 198.047H88.7586C88.1611 198.048 87.5693 197.931 87.017 197.703C86.4647 197.475 85.9628 197.141 85.5401 196.719C85.1173 196.298 84.7819 195.797 84.553 195.246C84.3242 194.695 84.2064 194.104 84.2064 193.507C84.2064 192.911 84.3242 192.32 84.553 191.769C84.7819 191.218 85.1173 190.717 85.5401 190.295C85.9628 189.874 86.4647 189.54 87.017 189.312C87.5693 189.084 88.1611 188.967 88.7586 188.968H289.386C290.591 188.969 291.746 189.448 292.597 190.299C293.449 191.15 293.927 192.304 293.927 193.507C293.927 194.711 293.449 195.864 292.597 196.716C291.746 197.567 290.591 198.046 289.386 198.047Z" fill="#E6E6E6"/>
<path d="M224.026 178.753H88.7586C87.5527 178.753 86.3963 178.275 85.5436 177.424C84.6909 176.572 84.2119 175.417 84.2119 174.213C84.2119 173.009 84.6909 171.855 85.5436 171.003C86.3963 170.152 87.5527 169.674 88.7586 169.674H224.026C225.231 169.674 226.388 170.152 227.241 171.003C228.093 171.855 228.572 173.009 228.572 174.213C228.572 175.417 228.093 176.572 227.241 177.424C226.388 178.275 225.231 178.753 224.026 178.753Z" fill="#E6E6E6"/>
<path d="M51.2319 33.8396C50.7656 33.8404 50.3117 33.6897 49.9386 33.4104L49.9155 33.3931L45.044 29.6723C44.8183 29.4997 44.6288 29.2843 44.4864 29.0385C44.344 28.7927 44.2516 28.5214 44.2143 28.2399C44.177 27.9584 44.1956 27.6724 44.269 27.3981C44.3425 27.1238 44.4693 26.8666 44.6423 26.6413C44.8154 26.4159 45.0311 26.2268 45.2774 26.0848C45.5236 25.9428 45.7954 25.8506 46.0774 25.8134C46.3593 25.7763 46.6458 25.795 46.9205 25.8685C47.1952 25.9419 47.4527 26.0687 47.6783 26.2415L50.8336 28.6575L58.2898 18.945C58.4627 18.7199 58.6783 18.5309 58.9244 18.3889C59.1704 18.247 59.442 18.1548 59.7238 18.1176C60.0055 18.0804 60.2918 18.0991 60.5663 18.1724C60.8408 18.2457 61.0982 18.3723 61.3237 18.5449L61.3244 18.5454L61.2781 18.6096L61.3256 18.5454C61.7806 18.8945 62.0783 19.4096 62.1533 19.9777C62.2284 20.5457 62.0746 21.1202 61.7259 21.5752L52.9558 32.9941C52.7529 33.2572 52.492 33.4701 52.1934 33.6163C51.8948 33.7624 51.5664 33.838 51.2339 33.837L51.2319 33.8396Z" fill="white"/>
<path d="M483.353 340H355.17C354.998 340 354.833 339.932 354.712 339.811C354.591 339.69 354.522 339.525 354.522 339.354C354.522 339.182 354.591 339.018 354.712 338.897C354.833 338.775 354.998 338.707 355.17 338.707H483.353C483.524 338.707 483.689 338.775 483.81 338.897C483.932 339.018 484 339.182 484 339.354C484 339.525 483.932 339.69 483.81 339.811C483.689 339.932 483.524 340 483.353 340Z" fill="#CCCCCC"/>
</g>
<defs>
<clipPath id="clip0">
<rect width="484" height="340" fill="white"/>
</clipPath>
</defs>
</svg>
