<svg width="71" height="73" viewBox="0 0 71 73" fill="none" xmlns="http://www.w3.org/2000/svg">
<g clip-path="url(#clip0)">
<path d="M35.5 72.8479C55.1061 72.8479 71 56.5403 71 36.4239C71 16.3075 55.1061 0 35.5 0C15.8939 0 0 16.3075 0 36.4239C0 56.5403 15.8939 72.8479 35.5 72.8479Z" fill="#DC4335"/>
<path d="M27.2967 34.3246V39.3734H35.4353C35.1051 41.539 32.9749 45.7241 27.2967 45.7241C22.3955 45.7241 18.4007 41.5589 18.4007 36.4238C18.4007 31.2888 22.3955 27.1236 27.2967 27.1236C30.0873 27.1236 31.9519 28.3459 33.0202 29.3955L36.9179 25.5425C34.4187 23.1444 31.175 21.6962 27.3032 21.6962C19.3654 21.7028 12.9491 28.2861 12.9491 36.4238C12.9491 44.5616 19.3654 51.1515 27.2967 51.1515C35.5777 51.1515 41.0746 45.1794 41.0746 36.7626C41.0746 35.7928 40.971 35.0554 40.848 34.3246H27.2967Z" fill="#F1F2F2"/>
<path d="M58.0574 34.3247H53.959V30.1196H49.8541V34.3247H45.7557V38.5297H49.8541V42.7348H53.9525V38.5297H58.0509V34.3247H58.0574Z" fill="#F1F2F2"/>
</g>
<defs>
<clipPath id="clip0">
<rect width="71" height="72.8545" fill="white"/>
</clipPath>
</defs>
</svg>
